@startuml
interface DownloadJob{
    Download start(DownloadJobExecutionContext context)
    void resume(Download download)
    void restart(Download download)
    void cancel()
}
note top:execute a single Download in a specific way

class YoutubeDownloadJob
YoutubeDownloadJob -up-|> DownloadJob

class DownloadJobExecutor{
    Download execute(DownloadJob job,DownloadJobExecutionContext context)
}
note top:manage the execution of jobs

class Download{
    DownloadProgress getProgress()
    DownloadJobExecutionContext getContext()
    onUpdate(Function callback)
}
note top:provide info about a concrete execution of a job

interface DownloadParameter{
    URL getUrl()
}
note top:provide parameters for a DownloadJob execution



@enduml

@startuml

[*] -right-> new  : add
new -right-> ready : prepare
new --> unavailable : prepare_failed
unavailable --> new : retry_prepare
ready -up-> downloading : download
downloading -right-> [*] : completed
ready -right-> [*] : remove

state downloading{
    waiting --> running : run
    waiting --> ready : cancel
    running --> waiting : pause
    running --> ready : cancel
    running --> failed : error
    running --> running : progress
    failed --> waiting : retry
    failed --> ready : cancel
}

@enduml